<svg xmlns="http://www.w3.org/2000/svg" id="prefix__Icons_SITE_Icon-118" width="24" height="24" data-name="Icons (SITE) /Icon-118" viewBox="0 0 24 24">
    <path id="prefix___Icon_Color" d="M16.733 23.077H0l2.726-7.216h1.746v1.154h-.947L1.67 21.923h13.394l-1.857-4.909h-.946v-1.153h1.745l2.726 7.215zM8.366 20.27l-.482-.735C7.822 19.44 1.7 10.153 1.7 6.605A6.672 6.672 0 0 1 7.42 0v1.177a5.512 5.512 0 0 0-4.564 5.435c0 2.118 2.969 7.542 5.511 11.543.594-.935 2.125-3.39 3.465-5.993 1.357-2.635 2.045-4.505 2.045-5.558a5.514 5.514 0 0 0-4.564-5.427V0a6.672 6.672 0 0 1 5.719 6.608c0 3.5-5.931 12.544-6.183 12.928l-.482.733zm0-11.707a2.539 2.539 0 1 1 2.54-2.539 2.542 2.542 0 0 1-2.54 2.539zm0-3.925a1.386 1.386 0 1 0 1.385 1.386 1.387 1.387 0 0 0-1.385-1.386z" data-name="🎨 Icon Color" transform="translate(3.633 .457)" style="fill:#42778d"/>
</svg>
