<svg width="27" height="33" viewBox="0 0 27 33" fill="none" xmlns="http://www.w3.org/2000/svg">
<path d="M25.0625 19.9687V15.9219C25.0625 14.5419 24.5143 13.2185 23.5385 12.2427C22.5628 11.2669 21.2393 10.7187 19.8594 10.7187H17.5469C17.0869 10.7187 16.6457 10.536 16.3205 10.2108C15.9952 9.8855 15.8125 9.44436 15.8125 8.98437V6.67187C15.8125 5.29192 15.2643 3.96849 14.2885 2.99271C13.3128 2.01693 11.9893 1.46875 10.6094 1.46875H7.71875M7.71875 21.125H19.2812M7.71875 25.75H13.5M11.1875 1.46875H3.67187C2.7145 1.46875 1.9375 2.24575 1.9375 3.20312V29.7969C1.9375 30.7542 2.7145 31.5312 3.67187 31.5312H23.3281C24.2855 31.5312 25.0625 30.7542 25.0625 29.7969V15.3437C25.0625 11.6639 23.6007 8.13471 20.9986 5.53264C18.3965 2.93058 14.8674 1.46875 11.1875 1.46875Z" stroke="currentColor" stroke-width="2" stroke-linecap="round" stroke-linejoin="round"/>
</svg>
