<svg width="15" height="17" viewBox="0 0 15 17" fill="none" xmlns="http://www.w3.org/2000/svg">
<path d="M9.71985 6.06939L9.43953 13.3611M5.56036 13.3611L5.28004 6.06939M13.356 3.4687C13.633 3.51083 13.9085 3.55539 14.184 3.60319M13.356 3.4687L12.4907 14.7165C12.4554 15.1744 12.2485 15.6022 11.9114 15.9142C11.5743 16.2261 11.1319 16.3994 10.6726 16.3993H4.32726C3.86796 16.3994 3.42554 16.2261 3.08847 15.9142C2.7514 15.6022 2.54452 15.1744 2.50921 14.7165L1.64393 3.4687M13.356 3.4687C12.4209 3.32733 11.481 3.22005 10.5381 3.14705M1.64393 3.4687C1.36684 3.51002 1.09138 3.55458 0.815918 3.60238M1.64393 3.4687C2.57899 3.32734 3.51889 3.22005 4.46175 3.14705M10.5381 3.14705V2.40492C10.5381 1.44891 9.80087 0.651684 8.84485 0.621707C7.94848 0.593057 7.05141 0.593057 6.15504 0.621707C5.19902 0.651684 4.46175 1.44972 4.46175 2.40492V3.14705M10.5381 3.14705C8.51569 2.99075 6.4842 2.99075 4.46175 3.14705" stroke="currentColor" stroke-width="1.7" stroke-linecap="round" stroke-linejoin="round"/>
</svg>
