<svg width="32" height="34" viewBox="0 0 32 34" fill="none" xmlns="http://www.w3.org/2000/svg">
<g filter="url(#filter0_d_301_4873)">
<rect width="32" height="32" rx="16" fill="white"/>
<g clip-path="url(#clip0_301_4873)">
<path d="M17.3733 14.0133L17.9867 14.6267L11.9467 20.6667H11.3333V20.0533L17.3733 14.0133ZM19.7733 10C19.6067 10 19.4333 10.0667 19.3067 10.1933L18.0867 11.4133L20.5867 13.9133L21.8067 12.6933C22.0667 12.4333 22.0667 12.0133 21.8067 11.7533L20.2467 10.1933C20.1133 10.06 19.9467 10 19.7733 10ZM17.3733 12.1267L10 19.5V22H12.5L19.8733 14.6267L17.3733 12.1267Z" fill="currentColor"/>
</g>
<rect x="0.5" y="0.5" width="31" height="31" rx="15.5" stroke="currentColor"/>
</g>
<defs>
<filter id="filter0_d_301_4873" x="0" y="0" width="32" height="34" filterUnits="userSpaceOnUse" color-interpolation-filters="sRGB">
<feFlood flood-opacity="0" result="BackgroundImageFix"/>
<feColorMatrix in="SourceAlpha" type="matrix" values="0 0 0 0 0 0 0 0 0 0 0 0 0 0 0 0 0 0 127 0" result="hardAlpha"/>
<feOffset dy="2"/>
<feColorMatrix type="matrix" values="0 0 0 0 0 0 0 0 0 0 0 0 0 0 0 0 0 0 0.016 0"/>
<feBlend mode="normal" in2="BackgroundImageFix" result="effect1_dropShadow_301_4873"/>
<feBlend mode="normal" in="SourceGraphic" in2="effect1_dropShadow_301_4873" result="shape"/>
</filter>
<clipPath id="clip0_301_4873">
<rect width="16" height="16" fill="white" transform="translate(8 8)"/>
</clipPath>
</defs>
</svg>
