<svg width="34" height="39" viewBox="0 0 34 39" fill="none" xmlns="http://www.w3.org/2000/svg">
<path id="Shape" d="M11.0906 19.0517C10.5383 19.0517 10.0906 19.4994 10.0906 20.0517C10.0906 20.604 10.5383 21.0517 11.0906 21.0517V19.0517ZM17.7587 21.0517C18.3109 21.0517 18.7587 20.604 18.7587 20.0517C18.7587 19.4994 18.3109 19.0517 17.7587 19.0517V21.0517ZM11.0906 23.8147C10.5383 23.8147 10.0906 24.2624 10.0906 24.8147C10.0906 25.3669 10.5383 25.8147 11.0906 25.8147V23.8147ZM17.7587 25.8147C18.3109 25.8147 18.7587 25.3669 18.7587 24.8147C18.7587 24.2624 18.3109 23.8147 17.7587 23.8147V25.8147ZM11.0906 29.5302C10.5383 29.5302 10.0906 29.9779 10.0906 30.5302C10.0906 31.0825 10.5383 31.5302 11.0906 31.5302V29.5302ZM17.7587 31.5302C18.3109 31.5302 18.7587 31.0825 18.7587 30.5302C18.7587 29.9779 18.3109 29.5302 17.7587 29.5302V31.5302ZM24.4268 30.4828C23.8745 30.4828 23.4268 30.9305 23.4268 31.4828C23.4268 32.035 23.8745 32.4828 24.4268 32.4828V30.4828ZM28.7134 31.4828V32.4828V31.4828ZM29.2354 4.00594L29.316 3.00919L29.3158 3.00918L29.2354 4.00594ZM27.1537 2.85943C26.6024 2.8275 26.1295 3.24858 26.0976 3.79995C26.0657 4.35131 26.4867 4.82416 27.0381 4.85609L27.1537 2.85943ZM17.9468 4.11614C18.0895 3.58261 17.7726 3.03442 17.2391 2.89172C16.7056 2.74902 16.1574 3.06585 16.0147 3.59938L17.9468 4.11614ZM27.2845 5.19973L26.2845 5.19947V5.19973H27.2845ZM28.0761 3.60016C27.9339 3.06651 27.3859 2.74924 26.8523 2.89151C26.3186 3.03378 26.0014 3.58171 26.1436 4.11536L28.0761 3.60016ZM15.8509 3.56162C15.6874 4.08913 15.9824 4.64935 16.5099 4.8129C17.0375 4.97646 17.5977 4.68141 17.7612 4.1539L15.8509 3.56162ZM20.6903 1V0H20.6901L20.6903 1ZM26.3291 4.15307C26.4922 4.68072 27.0522 4.97625 27.5798 4.81316C28.1075 4.65007 28.403 4.0901 28.2399 3.56245L26.3291 4.15307ZM15.9107 4.85612C16.4621 4.82454 16.8834 4.35195 16.8519 3.80057C16.8203 3.24919 16.3477 2.82781 15.7963 2.8594L15.9107 4.85612ZM13.7812 3.99588L13.7063 2.99868L13.7036 2.99889L13.7812 3.99588ZM9.13797 11.4784C9.13797 12.0307 9.58569 12.4784 10.138 12.4784C10.6903 12.4784 11.138 12.0307 11.138 11.4784H9.13797ZM11.0906 21.0517H17.7587V19.0517H11.0906V21.0517ZM11.0906 25.8147H17.7587V23.8147H11.0906V25.8147ZM11.0906 31.5302H17.7587V29.5302H11.0906V31.5302ZM24.4268 32.4828H28.7134V30.4828H24.4268V32.4828ZM28.7134 32.4828C31.6064 32.4828 34 30.1955 34 27.3151H32C32 29.0382 30.5553 30.4828 28.7134 30.4828V32.4828ZM34 27.3151V8.06615H32V27.3151H34ZM34 8.06615C34 5.44549 31.9928 3.22549 29.316 3.00919L29.1549 5.00269C30.7875 5.13462 32 6.48212 32 8.06615H34ZM29.3158 3.00918C28.5957 2.95112 27.875 2.9012 27.1537 2.85943L27.0381 4.85609C27.7443 4.89698 28.45 4.94586 29.1551 5.00271L29.3158 3.00918ZM16.0147 3.59938C15.8786 4.10795 15.8061 4.64551 15.8061 5.19973H17.8061C17.8061 4.82024 17.8558 4.4564 17.9468 4.11614L16.0147 3.59938ZM15.8061 5.19973C15.8061 6.44665 16.7085 7.71552 18.1159 7.71552V5.71552C18.0824 5.71552 18.0196 5.70215 17.9465 5.61757C17.8717 5.53099 17.8061 5.38622 17.8061 5.19973H15.8061ZM18.1159 7.71552H25.9747V5.71552H18.1159V7.71552ZM25.9747 7.71552C27.3825 7.71552 28.2845 6.44708 28.2845 5.19973H26.2845C26.2845 5.38669 26.2188 5.5314 26.1442 5.61773C26.0714 5.702 26.0087 5.71552 25.9747 5.71552V7.71552ZM28.2845 5.19999C28.2847 4.659 28.2147 4.11992 28.0761 3.60016L26.1436 4.11536C26.2368 4.46499 26.2846 4.83063 26.2845 5.19947L28.2845 5.19999ZM17.7612 4.1539C18.1577 2.87499 19.3444 2.00032 20.6906 2L20.6901 0C18.4706 0.000520527 16.5078 1.44296 15.8509 3.56162L17.7612 4.1539ZM20.6903 2H23.4003V0H20.6903V2ZM23.4003 2C24.7789 2 25.944 2.90715 26.3291 4.15307L28.2399 3.56245C27.6025 1.50014 25.6783 0 23.4003 0V2ZM15.7963 2.8594C15.0963 2.89949 14.4007 2.94652 13.7063 2.99869L13.8561 4.99307C14.5407 4.94164 15.2242 4.89544 15.9107 4.85612L15.7963 2.8594ZM13.7036 2.99889C11.1265 3.19946 9.13797 5.27022 9.13797 7.78032H11.138C11.138 6.37131 12.2654 5.11687 13.8587 4.99286L13.7036 2.99889ZM9.13797 7.78032V11.4784H11.138V7.78032H9.13797ZM10.138 10.4784H3.70802V12.4784H10.138V10.4784ZM3.70802 10.4784C1.97262 10.4784 0.564697 11.8864 0.564697 13.6218H2.5647C2.5647 12.9909 3.07719 12.4784 3.70802 12.4784V10.4784ZM0.564697 13.6218V35.055H2.5647V13.6218H0.564697ZM0.564697 35.055C0.564697 36.7904 1.97262 38.1983 3.70802 38.1983V36.1983C3.07719 36.1983 2.5647 35.6858 2.5647 35.055H0.564697ZM3.70802 38.1983H22.2834V36.1983H3.70802V38.1983ZM22.2834 38.1983C24.0188 38.1983 25.4268 36.7904 25.4268 35.055H23.4268C23.4268 35.6858 22.9143 36.1983 22.2834 36.1983V38.1983ZM25.4268 35.055V13.6218H23.4268V35.055H25.4268ZM25.4268 13.6218C25.4268 11.8864 24.0188 10.4784 22.2834 10.4784V12.4784C22.9143 12.4784 23.4268 12.9909 23.4268 13.6218H25.4268ZM22.2834 10.4784H10.138V12.4784H22.2834V10.4784Z" fill="currentColor"/>
</svg>
