<svg width="102" height="58" viewBox="0 0 102 58" fill="none" xmlns="http://www.w3.org/2000/svg">
    <path fill-rule="evenodd" clip-rule="evenodd"
          d="M3.39733 15.7858V17.8408H5.83058V15.7858H3.39733ZM11.4241 24.1059C11.4241 24.0773 11.3945 24.006 11.3945 24.006C11.3796 23.9632 11.2609 23.9489 11.2609 23.9489H9.37663V17.8266H7.00272V26.8602H5.02941C3.36767 26.8602 2.53681 26.1324 2.53681 24.6624V21.851H0.177734V25.0192C0.177734 26.1038 0.504147 27.0029 1.17181 27.7165C1.83947 28.43 2.87806 28.7868 4.31724 28.7868H9.37663V25.8898H11.2609C11.3203 25.8898 11.3648 25.8755 11.3945 25.8327C11.4241 25.8041 11.4241 25.7328 11.4241 25.7328V24.1059Z"
          fill="currentColor"/>
    <path fill-rule="evenodd" clip-rule="evenodd"
          d="M16.7052 23.2781C16.9575 23.535 17.2394 23.7205 17.5509 23.8061C17.8625 23.8918 18.3521 23.9488 19.005 23.9488C19.0791 23.9488 19.1236 23.9631 19.1385 24.0059C19.1425 24.0174 19.1464 24.0278 19.1501 24.0375C19.1602 24.064 19.1682 24.0849 19.1682 24.1058V25.7327C19.1682 25.7327 19.1682 25.8041 19.1385 25.8326C19.1088 25.8754 19.0643 25.8897 19.005 25.8897C18.2928 25.8897 17.729 25.7898 17.2987 25.6043C16.8684 25.4188 16.4678 25.1048 16.0821 24.6481C15.7853 25.0335 15.4144 25.3474 14.9693 25.5615C14.5242 25.7755 14.0346 25.8897 13.4856 25.8897H11.2452C11.2452 25.8897 11.1265 25.8754 11.1117 25.8326C11.082 25.7898 11.082 25.7613 11.082 25.7327V24.1058C11.082 24.1058 11.082 24.0345 11.1117 24.0059C11.1414 23.9774 11.1859 23.9488 11.2452 23.9488H12.7734C13.2185 23.9488 13.6043 23.7776 13.9307 23.4351C14.2571 23.0926 14.4203 22.6359 14.4203 22.0793V17.6696H16.7942V22.4361C16.7942 22.7073 16.7646 22.9927 16.7052 23.2781ZM12.1206 29.3861V27.3311H14.5539V29.3861H12.1206ZM15.5035 27.3311V29.3861H17.9368V27.3311H15.5035Z"
          fill="currentColor"/>
    <path fill-rule="evenodd" clip-rule="evenodd"
          d="M32.7003 19.6819C32.3294 19.054 31.8101 18.5545 31.1127 18.1977H31.1276C30.4302 17.8409 29.6142 17.6554 28.6498 17.6554C26.899 17.6554 25.0296 18.2691 23.0859 19.5249V17.8124H20.712V23.9347H19.0206C18.9613 23.9347 18.9168 23.9632 18.8871 23.9918C18.8574 24.0203 18.8574 24.0917 18.8574 24.0917V25.7186C18.8574 25.7471 18.8574 25.7757 18.8871 25.8185C18.9019 25.8613 19.0206 25.8756 19.0206 25.8756H29.1394C30.2819 25.8756 31.2611 25.5188 32.0326 24.8052C32.3739 25.162 32.7745 25.4189 33.2196 25.6044C33.6647 25.7899 34.0801 25.8756 34.4659 25.8756C34.5401 25.8756 34.5697 25.8613 34.5994 25.8185C34.6291 25.7899 34.6291 25.7186 34.6291 25.7186V24.0917C34.6291 24.0708 34.6211 24.0499 34.611 24.0234C34.6074 24.0137 34.6034 24.0032 34.5994 23.9918C34.5846 23.949 34.5401 23.9347 34.4659 23.9347C33.7982 23.9347 33.2938 23.7777 32.9377 23.4637C33.1454 22.9785 33.2492 22.4219 33.2492 21.8083C33.2492 21.0234 33.0564 20.3098 32.7003 19.6819ZM23.0711 21.48C23.9316 20.8949 24.7476 20.4382 25.5488 20.1243C26.35 19.8103 27.2402 19.6533 28.2195 19.6533C28.991 19.6533 29.6141 19.8531 30.0741 20.2527C30.534 20.6523 30.7863 21.1946 30.7863 21.8511C30.7863 22.5075 30.6082 23.0213 30.2521 23.3923C29.8961 23.7634 29.3916 23.9489 28.7239 23.9489H23.0711V21.48Z"
          fill="currentColor"/>
    <path d="M41.3198 18.4117C42.121 18.9112 42.6848 19.5962 43.0409 20.4667L43.9608 22.7073C44.2427 23.4208 44.8807 23.8347 45.8896 23.9346L44.9697 25.8897H34.4503C34.4503 25.8897 34.3316 25.8755 34.3168 25.8326C34.2871 25.7898 34.2871 25.7613 34.2871 25.7327V24.1058C34.2871 24.1058 34.2871 24.0345 34.3168 24.0059C34.3316 23.9631 34.391 23.9489 34.4503 23.9489H37.2842C38.1447 23.9489 41.2456 23.9489 41.9875 23.9489L40.8599 21.5228C40.6373 20.9947 40.2961 20.5809 39.8213 20.2955C39.3613 20.01 38.8124 19.8673 38.1595 19.8673C37.4474 19.8673 36.7946 20.01 36.2159 20.2812L35.3554 18.4259C36.3346 17.9264 37.388 17.6838 38.5156 17.6838C39.6432 17.6838 40.5186 17.9407 41.3198 18.4402V18.4117Z"
          fill="currentColor"/>
    <path fill-rule="evenodd" clip-rule="evenodd"
          d="M29.5695 42.2303C29.1985 42.3016 28.8276 42.3302 28.4864 42.3302L28.4567 42.3444C28.1451 42.3444 27.8484 42.3159 27.5813 42.2445C27.3143 42.1732 27.0769 42.0733 26.8691 41.9306C26.6763 41.7879 26.4982 41.6023 26.3795 41.374C26.2608 41.1457 26.1866 40.8745 26.157 40.5463H30.9493C30.9641 40.375 30.9641 40.1752 30.9641 39.9326V39.9326C30.9641 39.3047 30.89 38.7624 30.7267 38.3057C30.5635 37.849 30.341 37.4637 30.0591 37.1783C29.7772 36.8786 29.4359 36.6645 29.0502 36.5361C28.6644 36.4077 28.2193 36.3363 27.7742 36.3363C27.3291 36.3363 26.8988 36.4219 26.4834 36.5789C26.0828 36.7359 25.7119 36.9785 25.3855 37.2925C25.059 37.6064 24.8068 37.9918 24.6139 38.477C24.4211 38.9479 24.332 39.4902 24.332 40.1467C24.332 40.8032 24.4359 41.3455 24.6436 41.8021C24.8513 42.2588 25.1332 42.6299 25.4745 42.9153C25.8157 43.2007 26.2312 43.4005 26.6911 43.5289C27.151 43.6574 27.6555 43.7145 28.16 43.7145C28.6644 43.7145 29.1689 43.6717 29.6437 43.586C30.1184 43.5004 30.4745 43.4148 30.7119 43.3149V41.9449C30.3262 42.0733 29.9404 42.1589 29.5695 42.2303ZM27.1362 37.8062C27.3143 37.7348 27.522 37.692 27.7445 37.692C27.9671 37.692 28.1748 37.7206 28.338 37.8062C28.5012 37.8918 28.6348 37.9917 28.7535 38.1344C28.8573 38.2771 28.9463 38.4341 29.0057 38.6196C29.065 38.8052 29.0947 38.9907 29.0947 39.2048H26.2163C26.246 39.005 26.2905 38.8052 26.3647 38.6196C26.4537 38.4341 26.5428 38.2771 26.6763 38.1344C26.8098 37.9917 26.9582 37.8918 27.1362 37.8062Z"
          fill="currentColor"/>
    <path d="M1.85462 37.8348H6.52825V33.8246H8.36803V43.5432H6.52825V39.319H1.85462V43.5432H0V33.8246H1.85462V37.8348Z"
          fill="currentColor"/>
    <path fill-rule="evenodd" clip-rule="evenodd"
          d="M14.8377 42.7867H14.8674L14.8822 42.8438L14.9564 43.5859H16.5737C16.5588 43.3148 16.544 43.0151 16.544 42.6869C16.5291 42.3586 16.5291 41.959 16.5291 41.4881V41.4881V38.8336C16.5291 38.4769 16.4698 38.1486 16.3363 37.8489C16.2027 37.5492 15.995 37.2781 15.7279 37.064C15.446 36.85 15.1196 36.6787 14.719 36.5503C14.3184 36.4218 13.8585 36.3647 13.3244 36.3647C12.8644 36.3647 12.4341 36.4076 12.0187 36.4932C11.6033 36.5788 11.2175 36.693 10.8466 36.85V38.1914C11.262 38.0487 11.6626 37.9203 12.0187 37.8489C12.3748 37.7776 12.7457 37.7348 13.1018 37.7348C13.3985 37.7348 13.6508 37.7633 13.8585 37.8347C14.0662 37.906 14.2294 38.0059 14.3629 38.1201C14.4965 38.2343 14.5855 38.3627 14.6448 38.5197C14.7042 38.6624 14.7339 38.8194 14.7339 38.9906V39.2761C14.541 39.219 14.3036 39.1762 14.0365 39.1333C13.7695 39.0905 13.4727 39.0763 13.1612 39.0763C12.7309 39.0763 12.3303 39.1191 11.9742 39.2332C11.6181 39.3331 11.3065 39.4901 11.0543 39.7042C10.8021 39.904 10.6092 40.1609 10.4608 40.4606C10.3125 40.7602 10.2383 41.0885 10.2383 41.4738C10.2383 41.8163 10.2976 42.1303 10.4163 42.4014C10.535 42.6869 10.6982 42.9152 10.9208 43.115C11.1285 43.3005 11.3956 43.4575 11.6923 43.5574C12.0039 43.6573 12.3303 43.7144 12.6715 43.7144C12.9238 43.7144 13.1612 43.6858 13.3837 43.6287C13.6063 43.5717 13.814 43.5003 13.992 43.4004C14.1849 43.3148 14.3481 43.2149 14.4816 43.1007C14.4967 43.0879 14.5115 43.0752 14.5262 43.0627C14.6417 42.9641 14.7456 42.8754 14.8377 42.7867ZM14.1256 40.4321C14.3481 40.4606 14.5559 40.4892 14.7191 40.532L14.7339 40.5462V41.6166C14.6449 41.7022 14.5559 41.7878 14.452 41.8735C14.3333 41.9591 14.2146 42.0304 14.0811 42.1018C13.9475 42.1731 13.7992 42.2302 13.636 42.273C13.4728 42.3159 13.2947 42.3444 13.1167 42.3444C12.9683 42.3444 12.8348 42.3301 12.7012 42.2873C12.5677 42.2588 12.4638 42.1874 12.36 42.1161C12.2561 42.0304 12.1819 41.9305 12.1226 41.8164C12.0633 41.7022 12.0336 41.5595 12.0336 41.4025C12.0336 41.06 12.1671 40.8031 12.4193 40.6319C12.6716 40.4749 13.0277 40.3893 13.4579 40.3893C13.6805 40.3893 13.903 40.4035 14.1256 40.4321Z"
          fill="currentColor"/>
    <path d="M21.7507 41.5023C21.7507 41.3453 21.7062 41.2312 21.6172 41.1313C21.5281 41.0314 21.4094 40.9457 21.2611 40.8887C21.1127 40.8173 20.9495 40.7602 20.7566 40.7174C20.5637 40.6746 20.3709 40.6175 20.1631 40.5747C19.8961 40.5033 19.6438 40.432 19.4065 40.3321C19.1691 40.2465 18.9465 40.1323 18.7685 39.9753C18.5904 39.8326 18.4421 39.6471 18.3234 39.433C18.2195 39.2189 18.1602 38.9478 18.1602 38.6195C18.1602 38.2342 18.2343 37.8917 18.3827 37.6063C18.5311 37.3209 18.724 37.0783 18.9762 36.8927C19.2284 36.7072 19.5103 36.5645 19.8516 36.4646C20.178 36.379 20.5341 36.3219 20.8902 36.3219C21.3353 36.3219 21.7507 36.3504 22.1513 36.4218C22.5371 36.4932 22.8931 36.5788 23.2196 36.6929V38.0915C23.0563 38.0344 22.8783 37.9916 22.7003 37.9488C22.5222 37.906 22.3293 37.8632 22.1365 37.8346C21.9436 37.8061 21.7655 37.7776 21.5727 37.749C21.3946 37.7205 21.2166 37.7205 21.0385 37.7205C20.8308 37.7205 20.6528 37.7347 20.5044 37.7776C20.356 37.8204 20.2373 37.8632 20.1483 37.9345C20.0593 38.0059 19.9851 38.0772 19.9554 38.1629C19.9109 38.2485 19.8961 38.3341 19.8961 38.434C19.8961 38.591 19.9406 38.7194 20.0296 38.8193C20.1186 38.9192 20.2373 39.0049 20.4005 39.062C20.5637 39.119 20.7121 39.1761 20.8902 39.2189C21.0534 39.2617 21.2314 39.3046 21.3946 39.3331C21.6468 39.3902 21.8991 39.4615 22.1513 39.5472C22.4035 39.6328 22.6261 39.747 22.8338 39.8897C23.0415 40.0324 23.2047 40.2322 23.3234 40.4605C23.4569 40.7031 23.5163 40.9886 23.5163 41.3596C23.5163 41.7592 23.4421 42.1017 23.2789 42.4014C23.1157 42.7011 22.908 42.9437 22.6261 43.1435C22.3442 43.3433 22.0178 43.486 21.6172 43.5716C21.2314 43.6715 20.8011 43.7143 20.3263 43.7143C19.8516 43.7143 19.451 43.6858 19.08 43.6144C18.7091 43.5431 18.3975 43.4575 18.1602 43.3433V41.959C18.5459 42.1017 18.9168 42.2016 19.2433 42.2444C19.5697 42.2872 19.8812 42.3158 20.178 42.3158C20.4005 42.3158 20.6082 42.3015 20.8011 42.273C20.994 42.2444 21.1572 42.1873 21.2907 42.1302C21.4243 42.0589 21.543 41.9733 21.6172 41.8734C21.6913 41.7735 21.7359 41.645 21.7359 41.5023"
          fill="currentColor"/>
    <path fill-rule="evenodd" clip-rule="evenodd"
          d="M36.9288 42.2303C36.5579 42.3016 36.187 42.3302 35.8457 42.3302L35.8161 42.3444C35.5045 42.3444 35.2078 42.3159 34.9407 42.2445C34.6736 42.1732 34.4362 42.0733 34.2285 41.9306C34.0356 41.7879 33.8576 41.6023 33.7389 41.374C33.6202 41.1457 33.546 40.8745 33.5163 40.5463H38.3087C38.3235 40.375 38.3235 40.1752 38.3235 39.9326V39.9326C38.3235 39.3047 38.2493 38.7624 38.0861 38.3057C37.9229 37.849 37.7004 37.4637 37.4185 37.1783C37.1366 36.8786 36.7953 36.6645 36.4096 36.5361C36.0238 36.4077 35.5787 36.3363 35.1336 36.3363C34.6885 36.3363 34.2582 36.4219 33.8428 36.5789C33.4422 36.7359 33.0712 36.9785 32.7448 37.2925C32.4184 37.6064 32.1662 37.9918 31.9733 38.477C31.7804 38.9479 31.6914 39.4902 31.6914 40.1467C31.6914 40.8032 31.7953 41.3455 32.003 41.8021C32.2107 42.2588 32.4926 42.6299 32.8339 42.9153C33.1751 43.2007 33.5905 43.4005 34.0505 43.5289C34.5104 43.6574 35.0149 43.7145 35.5193 43.7145C36.0238 43.7145 36.5282 43.6717 37.003 43.586C37.4778 43.5004 37.8339 43.4148 38.0713 43.3149V41.9449C37.6855 42.0733 37.2998 42.1589 36.9288 42.2303ZM34.4955 37.8062C34.6736 37.7348 34.8813 37.692 35.1038 37.692C35.3264 37.692 35.5341 37.7206 35.6973 37.8062C35.8605 37.8918 35.994 37.9917 36.1127 38.1344C36.2166 38.2771 36.3056 38.4341 36.365 38.6196C36.4243 38.8052 36.454 38.9907 36.454 39.2048H33.5756C33.6053 39.005 33.6498 38.8052 33.724 38.6196C33.813 38.4341 33.902 38.2771 34.0356 38.1344C34.1691 37.9917 34.3175 37.8918 34.4955 37.8062Z"
          fill="currentColor"/>
    <path d="M41.1731 37.4923H41.2028C41.3066 37.3496 41.4401 37.2068 41.6033 37.0641C41.7666 36.9214 41.9446 36.8073 42.1523 36.6931C42.36 36.5789 42.5826 36.5076 42.8348 36.4362C43.087 36.3648 43.3541 36.3363 43.636 36.3363C43.9031 36.3363 44.1553 36.3648 44.4075 36.4219C44.6598 36.479 44.8823 36.5646 45.09 36.6931C45.2977 36.8215 45.4758 36.9785 45.639 37.1783C45.8022 37.3781 45.9209 37.6064 46.0099 37.8776C46.0544 38.0346 46.0989 38.1915 46.1138 38.3628C46.1286 38.5341 46.1435 38.7481 46.1435 38.9765V43.5432H44.363V39.2476C44.363 39.0621 44.363 38.8908 44.3333 38.7624C44.3185 38.6197 44.2888 38.5055 44.2443 38.4056C44.1553 38.1773 44.0218 38.0203 43.8289 37.9204C43.6508 37.8205 43.4283 37.7777 43.1612 37.7777C42.82 37.7777 42.4787 37.849 42.1672 38.006C41.8556 38.163 41.5588 38.3913 41.3214 38.691V43.5289H39.541V36.4933H41.0247L41.1879 37.478L41.1731 37.4923Z"
          fill="currentColor"/>
    <path fill-rule="evenodd" clip-rule="evenodd"
          d="M77.3482 16.4834L71.6687 13.0567C71.2821 12.8204 71.0442 12.4068 71.0442 11.9637V1.09298C71.0442 0.723732 71.3416 0.443101 71.6984 0.443101H72.9622C73.319 0.443101 73.6015 0.738502 73.6015 1.09298V11.24L76.7238 13.1306V0.635112C76.7238 0.280631 77.0211 0 77.378 0H78.6418C79.0135 0 79.296 0.280631 79.296 0.635112V15.3461C79.296 15.8187 79.0581 16.2618 78.6864 16.4834C78.2849 16.7197 77.7497 16.7197 77.3482 16.4834ZM83.0576 16.9265H84.3213C84.6782 16.9265 84.9755 16.6311 84.9755 16.2766V1.09301C84.9755 0.738529 84.6931 0.443128 84.3213 0.443128H83.0576C82.7007 0.443128 82.4034 0.723759 82.4034 1.09301V16.2766C82.4034 16.6311 82.7007 16.9265 83.0576 16.9265ZM66.0337 1.34406H67.2974L67.3123 1.35883C67.6691 1.35883 67.9516 1.63946 67.9516 1.99394V12.5545C67.9516 13.0272 67.6543 13.485 67.2231 13.6918L61.5435 16.4243C61.38 16.4981 61.1867 16.5424 60.9934 16.5424C60.6366 16.5424 60.3095 16.3947 60.0567 16.1289C59.8337 15.9073 59.7147 15.5824 59.7147 15.2279V3.78112C59.7147 3.42664 59.9972 3.13123 60.3541 3.13123H61.6179C61.9747 3.13123 62.2572 3.42664 62.2572 3.78112V13.2339L65.3795 11.7422V1.97917C65.3795 1.62469 65.6768 1.34406 66.0337 1.34406ZM67.9367 30.9727C67.9367 30.6773 67.8178 30.3819 67.6245 30.1456L67.6096 30.1308L62.2423 23.9422V19.8657C62.2423 19.5112 61.9598 19.2158 61.603 19.2158H60.3392C59.9823 19.2158 59.6998 19.5112 59.6998 19.8657V24.4148C59.6998 24.725 59.8188 25.0204 60.0121 25.242L65.3794 31.4454V50.9566C65.3794 51.3111 65.6768 51.6065 66.0336 51.6065H67.2974C67.6542 51.6065 67.9367 51.3111 67.9367 50.9566V30.9727ZM62.3315 37.0433C63.4169 36.5263 64.1008 35.4481 64.1008 34.2517H64.1157C64.1157 32.5384 62.7181 31.15 60.9934 31.15C59.2687 31.15 57.8711 32.5384 57.8711 34.2517C57.8711 35.4481 58.5401 36.5263 59.6404 37.0433L59.7147 37.0728V46.3632C59.7147 46.7176 59.9972 46.9983 60.354 46.9983H61.6178C61.9747 46.9983 62.2572 46.7176 62.2572 46.3632V37.0728L62.3315 37.0433ZM62.2275 34.2517C62.2275 33.5723 61.6625 33.011 60.9786 33.011C60.2946 33.011 59.7296 33.5723 59.7296 34.2517C59.7296 34.9311 60.2946 35.4924 60.9786 35.4924C61.6625 35.4924 62.2275 34.9311 62.2275 34.2517ZM55.9383 6.17388H54.6745C54.3176 6.17388 54.0352 6.46928 54.0352 6.82376V36.0684C54.0352 36.4229 54.3176 36.7183 54.6745 36.7183H55.9383C56.2951 36.7183 56.5776 36.4229 56.5776 36.0684V6.80899C56.5776 6.45451 56.2951 6.15911 55.9383 6.15911V6.17388ZM100.081 6.17388H101.345V6.15911C101.702 6.15911 101.999 6.45451 101.999 6.80899V36.0684C101.999 36.4229 101.702 36.7183 101.345 36.7183H100.081C99.7097 36.7183 99.4272 36.4229 99.4272 36.0684V6.82376C99.4272 6.46928 99.7246 6.17388 100.081 6.17388ZM95.6656 3.14602H94.4018C94.045 3.14602 93.7477 3.44142 93.7477 3.7959V20.7814C93.7477 21.1359 94.0301 21.4313 94.4018 21.4313H95.6656C96.0225 21.4313 96.3198 21.1359 96.3198 20.7814V3.78113C96.3198 3.42665 96.0225 3.13125 95.6656 3.13125V3.14602ZM94.3722 36.3491C94.5803 36.2309 94.8033 36.1718 95.0264 36.1718L95.0412 36.1866C95.3534 36.1866 95.6657 36.3048 95.9184 36.5263C96.1712 36.7626 96.3199 37.1171 96.3199 37.5011V46.3927C96.3199 46.7472 96.0225 47.0278 95.6657 47.0278H94.4019C94.0302 47.0278 93.7477 46.7472 93.7477 46.3927V39.6723L90.6254 41.4891V50.9862C90.6254 51.3407 90.3281 51.6361 89.9712 51.6361H88.7074C88.3506 51.6361 88.0532 51.3407 88.0532 50.9862V40.7506C88.0532 40.3075 88.306 39.8791 88.6926 39.6576L94.3722 36.3491ZM83.682 42.3161H83.6226L77.943 42.5968C77.259 42.6263 76.7238 43.1876 76.7238 43.867V56.4363C76.7238 56.7908 77.0211 57.0714 77.378 57.0714H78.6418C78.9986 57.0714 79.296 56.7908 79.296 56.4363V45.0781L82.4182 44.9304V54.2208C82.4182 54.5753 82.7156 54.8707 83.0724 54.8707H84.3362C84.6931 54.8707 84.9904 54.5753 84.9904 54.2208V43.5864C84.9904 43.4682 84.9904 43.3648 84.9458 43.2614C84.7971 42.7002 84.2916 42.3014 83.7118 42.3014L83.682 42.3161ZM72.3228 54.8559C74.0475 54.8559 75.4451 53.4675 75.4451 51.7542C75.4451 50.5578 74.776 49.4796 73.6758 48.9627L73.6015 48.9183V41.1493C73.6015 40.7948 73.319 40.5142 72.9621 40.5142H71.6984C71.3415 40.5142 71.0442 40.7948 71.0442 41.1493V48.9183L70.9698 48.9627C69.8845 49.4796 69.2005 50.5578 69.2005 51.7542C69.2005 53.4675 70.5981 54.8559 72.3228 54.8559ZM73.5717 51.7542C73.5717 51.0748 73.0068 50.5135 72.3228 50.5135C71.6389 50.5135 71.0739 51.0748 71.0739 51.7542C71.0739 52.4336 71.6389 52.9949 72.3228 52.9949C73.0068 52.9949 73.5717 52.4336 73.5717 51.7542ZM96.3199 27.3541C96.3199 26.9701 96.1563 26.6304 95.859 26.3793L95.8441 26.3645L90.6254 22.0369V7.28162L90.6998 7.23731C91.7703 6.72035 92.4691 5.62737 92.4691 4.44577C92.4691 2.73244 91.0715 1.34406 89.3468 1.34406C87.6221 1.34406 86.2245 2.73244 86.2245 4.44577C86.2245 5.62737 86.9233 6.72035 87.9938 7.23731L88.0681 7.28162V22.6572C88.0681 23.0412 88.2317 23.3957 88.529 23.632L93.7477 27.9597V30.5297C93.7477 30.8841 94.0451 31.1648 94.4019 31.1648H95.6657C96.0225 31.1648 96.3199 30.8841 96.3199 30.5297V27.3541ZM90.6105 4.47532C90.6105 3.7959 90.0604 3.23464 89.3765 3.23464C88.6926 3.23464 88.1276 3.7959 88.1276 4.47532C88.1276 5.15474 88.6777 5.716 89.3765 5.716C90.0753 5.716 90.6105 5.16951 90.6105 4.47532ZM79.6677 33.7496C81.6154 32.376 83.1616 31.2977 86.1947 32.1544L86.2393 32.1101C86.2988 32.1249 86.3285 32.1692 86.3285 32.2283C86.3137 32.2873 86.2839 32.3316 86.2245 32.3316C83.2211 32.5827 81.8087 33.6905 80.307 34.8721C79.9799 35.138 79.6379 35.4038 79.2811 35.6549C80.307 36.3196 81.4072 36.9547 82.5372 37.1615C82.5967 37.1762 82.6561 37.2205 82.6561 37.2796C82.6561 37.3239 82.6264 37.3978 82.5818 37.4125C82.0911 37.6636 81.6302 37.7818 81.1693 37.7818C80.1286 37.7818 79.1324 37.191 78.0768 36.482C76.5602 37.5012 75.1775 38.2692 73.5718 37.4125C73.5272 37.3978 73.4974 37.3239 73.4974 37.2796C73.4974 37.2205 73.542 37.1615 73.6015 37.1615C74.7315 36.9694 75.8466 36.3343 76.8725 35.6549C76.5008 35.4038 76.1588 35.138 75.8317 34.8721L75.8098 34.8551C74.3162 33.6945 72.9029 32.5963 69.9142 32.3464C69.8548 32.3316 69.8102 32.3021 69.8102 32.243C69.7953 32.1839 69.8399 32.1249 69.8845 32.1249C72.9176 31.2682 74.4638 32.3464 76.4116 33.72C76.6494 33.8825 76.8873 34.045 77.1401 34.2222C77.5564 31.0171 77.4821 27.1917 77.4077 25.9215C76.6197 26.3941 75.6682 27.2951 75.0288 29.6583L74.9396 29.9832C74.9099 30.0423 74.8801 30.0718 74.8207 30.0718C74.7761 30.0718 74.7166 29.9832 74.7166 29.9832L74.6571 29.6583C74.2408 27.3394 75.46 25.6851 75.9655 25.1091C75.7425 25.1534 75.4005 25.2273 74.9842 25.4193C74.3152 25.7294 73.3339 26.3793 72.3526 27.7972L72.1444 28.1074C72.1147 28.1517 72.0552 28.1665 72.0106 28.1517C71.966 28.137 71.9511 28.0336 71.9511 28.0336L72.0255 27.6643C72.6648 24.6217 74.8801 23.6026 75.683 23.3219C75.2519 23.1742 74.2111 23.0118 72.2336 23.6616L71.9809 23.7503C71.9214 23.765 71.8768 23.7503 71.8471 23.7059C71.8025 23.6616 71.8471 23.573 71.8471 23.573L72.0255 23.3662C73.5272 21.6086 75.7128 21.7711 76.4859 21.8892C76.2926 21.6234 75.906 21.195 75.2519 20.7519L74.9842 20.5747C74.9396 20.5452 74.9248 20.4861 74.9396 20.4418C74.9545 20.3827 75.0586 20.3679 75.0586 20.3679L75.3708 20.4122C76.5305 20.5747 77.2888 21.0473 77.6307 21.3575C77.6605 21.0326 77.7348 20.6042 77.8835 20.2645L77.943 20.1021C77.9578 20.0725 78.0024 20.043 78.047 20.043C78.0916 20.043 78.1511 20.1168 78.1511 20.1168L78.2106 20.2645C78.3593 20.6042 78.4336 21.0326 78.4633 21.3575C78.6269 21.195 78.9094 21.003 79.2811 20.8258C79.6528 20.6485 80.1286 20.5008 80.7084 20.4122L81.0206 20.3679C81.0653 20.3679 81.1247 20.3975 81.1396 20.4418C81.1545 20.4861 81.095 20.5747 81.095 20.5747L80.8274 20.7519C80.1732 21.195 79.7866 21.6234 79.5933 21.8892C80.3516 21.7711 82.5372 21.6086 84.0537 23.3662L84.2321 23.573C84.2619 23.6173 84.2619 23.6616 84.2321 23.7059C84.2024 23.7503 84.0983 23.7503 84.0983 23.7503L83.8456 23.6616C81.8384 23.0118 80.8125 23.1742 80.3962 23.3219C81.1991 23.6026 83.4293 24.6365 84.0537 27.6791L84.1281 28.0336C84.1429 28.0926 84.1132 28.1517 84.0686 28.1665C84.024 28.1813 83.9348 28.1222 83.9348 28.1222L83.7266 27.812C82.7453 26.3941 81.7492 25.7442 81.095 25.434C80.6787 25.242 80.3367 25.1534 80.1137 25.1239C80.6192 25.6999 81.8384 27.3541 81.4221 29.6878L81.3626 30.0128C81.3477 30.0571 81.318 30.1014 81.2585 30.1014C81.1991 30.1014 81.1396 30.0128 81.1396 30.0128L81.0504 29.6878C80.4111 27.3394 79.4744 26.4384 78.6715 25.951C78.5972 27.2212 78.5228 31.0614 78.9391 34.2518C79.1918 34.0746 79.4296 33.9121 79.6675 33.7497L79.6677 33.7496Z"
          fill="currentColor"/>
</svg>
