<svg version="1.2" xmlns="http://www.w3.org/2000/svg" viewBox="0 0 314 119" width="314" height="119">
	<title>New NCA Logo color-svg</title>
	<defs>
		<linearGradient id="g1" x1="221.6" y1="90.9" x2="306.8" y2="8.7" gradientUnits="userSpaceOnUse">
			<stop offset="0" stop-color="#00b9ad"/>
			<stop offset="1" stop-color="#2d3982"/>
		</linearGradient>
	</defs>
	<style>
		.s0 { fill: #373d48 } 
		.s1 { fill: url(#g1) } 
	</style>
	<g id="Layer">
		<g id="Layer">
			<path id="Layer" class="s0" d="m6.8 35.8h3.1v2.7h-3.1z"/>
			<path id="Layer" class="s0" d="m2.5 35.8h3.1v2.7h-3.1z"/>
			<path id="Layer" fill-rule="evenodd" class="s0" d="m11.2 51q-1.1 0-1.9-0.4c-0.5 0.1-2.3 0.4-3.7 0.4-1 0-1.9-0.3-2.7-0.7q-1.2-0.6-1.9-1.9c-0.5-0.8-0.7-1.8-0.7-2.8q0-1.6 0.7-2.8 0.8-1.3 2.1-2 1.3-0.7 3-0.7 1.5 0 4.3 0.4v5.8q0 1.2 0.4 1.6 0.5 0.5 1.3 0.5h30.3q0.9 0 1.5-0.7 0.6-0.7 0.6-1.8v-5.8h3v6.3q0 0.5-0.1 1.1 0.5 0.5 1.1 0.7 0.6 0.2 1.9 0.2h0.4q0.8 0 1.5-0.7 0.6-0.7 0.6-1.8v-5.6h3v6.1q0 0.6-0.1 1.2 0.6 0.8 2 0.8h5v-13.9h3v8q3.7-2.4 7.1-2.4 1.8 0 3.1 0.7 1.4 0.7 2 2 0.7 1.2 0.7 2.8 0 2-1.3 5.4h-19.6q-0.7 0-1.5-0.4-0.8-0.3-1.5-1-1.2 1.4-3.1 1.4h-1.3q-1.4 0-2.2-0.4-0.8-0.3-1.6-1.2-0.5 0.7-1.4 1.2-0.8 0.4-1.8 0.4c0 0-32.2 0-32.2 0zm54.6-5.9v3.3h9.4q0.5-1.5 0.5-2.8-0.1-1.3-1-2.1-0.8-0.8-2.3-0.8-1.8 0-3.4 0.7-1.6 0.6-3.2 1.7zm-59.7 3.3c0.5 0 1.1 0 1.5 0q-0.2-0.7-0.2-1.6v-4q-0.8-0.1-1.3-0.1-2.7 0-2.7 2.9 0 1.3 0.7 2.1 0.7 0.7 2 0.7z"/>
			<path id="Layer" class="s0" d="m41.6 52.9h3.1v2.7h-3.1z"/>
			<path id="Layer" class="s0" d="m45.9 52.9h3.1v2.7h-3.1z"/>
			<path id="Layer" class="s0" d="m52.8 35.8h3.1v2.7h-3.1z"/>
			<path id="Layer" fill-rule="evenodd" class="s0" d="m83.4 50.3q-1.2-0.7-1.9-1.9c-0.5-0.8-0.7-1.8-0.7-2.8q0-1.6 0.7-2.8 0.8-1.3 2.1-2 1.3-0.7 3.1-0.7 1.5 0 4.2 0.4v7.9h3.5v-13.9h3v16.5h-6.5q-0.2 2.4-1.6 3.5-1.4 1.1-3.9 1.5l-1.2 0.2v-2.9q1.3-0.1 2.1-0.4 0.8-0.4 1.2-1 0.3-0.4 0.4-0.9h-1.9q-1.5 0-2.7-0.7zm0.6-4.7q0 1.3 0.7 2.1 0.7 0.7 1.9 0.7h1.4v-5.6q-0.7-0.1-1.4-0.1-2.6 0-2.6 2.9z"/>
			<path id="Layer" class="s0" d="m101.1 34.5h3v16.5h-3z"/>
			<path id="Layer" class="s0" d="m117.8 35.8h3.1v2.7h-3.1z"/>
			<path id="Layer" class="s0" d="m113.5 35.8h3.1v2.7h-3.1z"/>
			<path id="Layer" fill-rule="evenodd" class="s0" d="m151.5 51h-29.4q-1.1 0-1.9-0.5c-0.5 0.1-2.3 0.5-3.7 0.5-0.9 0-1.9-0.3-2.7-0.7q-1.2-0.7-1.9-1.9c-0.4-0.8-0.6-1.8-0.6-2.8q0-1.6 0.7-2.9 0.7-1.2 2-1.9 1.4-0.7 3.1-0.7 1.5 0 4.3 0.4v5.8q0 1.1 0.4 1.6 0.4 0.5 1.2 0.5h27.6q0.9 0 1.5-0.7 0.6-0.7 0.6-1.8v-5.8h3v6.3q0 0.5-0.1 1.1 0.5 0.5 1.1 0.7 0.6 0.2 1.8 0.2h2q0.8 0 1.4-0.7 0.6-0.7 0.6-1.8v-5.8h3v6.3q0 0.5-0.1 1.1 0.5 0.5 1.1 0.7 0.6 0.2 1.9 0.2h2.6q-1.1-1-1.1-2.6 0-1.1 0.6-2.1 0.6-1 1.7-1.6 1.1-0.6 2.5-0.6 1.5 0 2.6 0.7 1 0.6 1.5 1.6 0.6 1.1 0.6 2.1 0 1.5-1.1 2.5h0.5q0.6 0 1.2-0.4 0.6-0.3 1.1-1 0.4-0.8 0.4-1.9 0-1.3-0.6-2.4-0.6-1.1-1.8-1.8-1.2-0.6-3-0.6h-2.6v-2.6h2.7q2.5 0 4.4 1 1.9 0.9 2.9 2.6 1 1.6 1 3.6 0 1.2-0.3 2.4 0.3 0.6 0.9 0.8 0.5 0.3 1.4 0.3h2.1v-13.9h3v16.5h-5.1q-0.8 0-1.8-0.4-0.9-0.5-1.6-1.3-1.3 1.7-3.4 1.7h-11.3q-1.4 0-2.2-0.4-0.8-0.3-1.6-1.2-0.5 0.7-1.4 1.2-0.8 0.4-1.9 0.4h-2.8q-1.3 0-2.2-0.4-0.8-0.3-1.5-1.2-0.6 0.7-1.4 1.2-0.9 0.4-1.9 0.4zm22-6.4q-0.5 0.5-0.5 1.5 0 1.8 1.8 2.3h0.1q0.9 0 1.4-0.6 0.5-0.6 0.5-1.6 0-0.5-0.2-1-0.3-0.4-0.8-0.7-0.4-0.3-1.1-0.3-0.8 0-1.2 0.4zm-56.4 3.8c0.5 0 1.1 0 1.5 0q-0.2-0.7-0.2-1.5v-4q-0.7-0.2-1.3-0.2-2.7 0-2.7 3 0 1.3 0.7 2 0.7 0.7 2 0.7z"/>
			<path id="Layer" class="s0" d="m156.9 37v1.8h-5.8l0.4-1.8h1.1q-0.3-0.4-0.3-0.8 0.1-1.1 0.7-1.7 0.7-0.6 1.8-0.6 0.6 0 1.3 0.2l-0.5 1.6q-0.4-0.1-0.6-0.1-0.4 0-0.6 0.2-0.2 0.2-0.2 0.6 0 0.4 0.2 0.6h2.5z"/>
			<path id="Layer" class="s0" d="m163.9 52.9h3.1v2.7h-3.1z"/>
			<path id="Layer" class="s0" d="m159.6 52.9h3.1v2.7h-3.1z"/>
			<path id="Layer" class="s0" d="m195.3 34.5h3v16.5h-3z"/>
			<path id="Layer" class="s0" d="m4.3 78.7h3.1v2.7h-3.1z"/>
			<path id="Layer" class="s0" d="m8.6 78.7h3.1v2.7h-3.1z"/>
			<path id="Layer" class="s0" d="m24.4 61.6h3.1v2.7h-3.1z"/>
			<path id="Layer" class="s0" d="m24.5 74.2v-8.1h3v10.7h-6.5q-1.8 0-2.8-1.1-1-1.1-1-3v-6.6h-0.7q-3.2 0-3.2 3v7.7h-7.7q-2.7 0-4-1.4-1.3-1.4-1.3-3.6v-5.6h3v5.2q0 2.8 3.2 2.8h3.8v-5.6q0-2.2 1.3-3.6 1.3-1.4 4-1.4h4.6v8.6q0 1.1 0.4 1.6 0.5 0.4 1.3 0.4h2.6z"/>
			<path id="Layer" class="s0" d="m30.7 60.3h3v16.5h-3z"/>
			<path id="Layer" class="s0" d="m71.6 78.7h3.1v2.7h-3.1z"/>
			<path id="Layer" class="s0" d="m82.1 78.7h3.1v2.7h-3.1z"/>
			<path id="Layer" class="s0" d="m77.8 78.7h3.1v2.7h-3.1z"/>
			<path id="Layer" class="s0" d="m110.4 74.2v-13.9h3v16.5h-5.1q-1.4 0-2.2-0.4-0.8-0.3-1.6-1.3-0.6 0.8-1.5 1.3-1 0.4-2.1 0.4-1.4 0-2.3-0.3-0.9-0.4-1.5-1.1-1.2 1.4-3.1 1.4h-7.4q-1.4 0-2.2-0.4-0.8-0.3-1.6-1.2-0.5 0.8-1.4 1.2-0.8 0.4-1.8 0.4h-2.9q-0.7 0-1.5-0.3-0.9-0.4-1.5-1.1-1.2 1.4-3.1 1.4h-27.9q-1 0-2.1-0.6 0 2.8-1.3 4.1-1.3 1.3-3.4 1.6l-1.2 0.1v-2.8q1-0.2 1.6-0.4 0.7-0.3 1-0.9 0.3-0.6 0.3-1.6v-10.2h3v7.2q0.6 0.9 2.1 0.9h27q0.8 0 1.4-0.6 0.7-0.7 0.6-1.8v-5.7h3.1v6.1q0 0.7-0.2 1.2 0.7 0.8 2.1 0.8h2q0.8 0 1.4-0.6 0.7-0.7 0.7-1.8v-5.9h3v6.3q0 0.6-0.1 1.2 0.4 0.5 1 0.7 0.7 0.1 1.9 0.1h2.1v-8.1h3.1v8.1h1.3q0.8 0 1.5-0.6 0.6-0.7 0.6-1.8v-5.7h3v6.1q0 1 0.7 1.5 0.7 0.5 1.6 0.5 0.9 0 1.4-0.6 0.6-0.6 0.6-1.8v-6.6h3v7q0 0.4-0.1 1.1 0.5 0.6 1 0.8 0.6 0.1 1.9 0.1h2.2z"/>
			<path id="Layer" class="s0" d="m117.1 60.3h3v16.5h-3z"/>
			<path id="Layer" class="s0" d="m131.8 63.5h3.1v2.7h-3.2z"/>
			<path id="Layer" fill-rule="evenodd" class="s0" d="m173.2 66.7q1.3 0.7 2.1 1.9 0.7 1.3 0.7 2.8 0 2.1-1.3 5.4h-35.4v3.9h-6.4q-2.7 0-4-1.5-1.3-1.4-1.3-3.5v-4.2h3.1v3.7q-0.1 2.9 3.1 2.9h2.5v-11.9h3v8h26.6v-7.8q2.8-0.5 4.2-0.5 1.8 0 3.1 0.7zm-0.7 7.6q0.4-1.5 0.4-2.8 0-2.9-2.6-2.9-0.7 0-1.4 0.1v5.6h3.6z"/>
			<path id="Layer" class="s0" d="m182.3 62.3h0.8q-0.2-0.5-0.2-0.8 0-0.7 0.4-1.2 0.4-0.4 1.2-0.4 0.5 0 1.4 0.3l-0.3 1.4q-0.6-0.2-1-0.2-0.2 0-0.3 0.1-0.2 0.1-0.2 0.3 0 0.3 0.3 0.5h1.8v1.4h-4.3c0 0 0.4-1.4 0.4-1.4z"/>
			<path id="Layer" class="s0" d="m195.3 74.2v-13.9h3v16.5h-5.1-1.4q-1.9 0-2.9-1.3-1.8 1.3-4 1.3h-6.4v-2.6h3.9v-8.6h3v8.6h0.1q1.6-0.1 2.6-0.7 0-0.6 0-0.8v-12.8h3v12.3q0 1.1 0.4 1.6 0.4 0.4 1.2 0.4h0.5 2.1z"/>
		</g>
		<g id="Layer">
			<path id="Layer" class="s0" d="m5.1 96.4q1 1.4 1.6 2.5-0.1-1.8-0.1-2.6v-4.1h1.7v9.1h-1.7l-3-4.2q-0.8-1.1-1.7-2.5 0.1 1.7 0.1 2.6v4.1h-1.7v-9.1h1.8z"/>
			<path id="Layer" fill-rule="evenodd" class="s0" d="m14.2 100.6zm-0.1 0q-0.1 0.1-0.3 0.3-0.2 0.1-0.4 0.3-0.3 0.1-0.6 0.2-0.3 0.1-0.6 0.1-0.5 0-0.9-0.2-0.4-0.1-0.7-0.4-0.3-0.3-0.5-0.7-0.1-0.4-0.1-0.9 0-0.5 0.2-0.9 0.1-0.4 0.5-0.7 0.3-0.3 0.8-0.5 0.5-0.1 1.1-0.1 0.4 0 0.8 0 0.3 0.1 0.6 0.1v-0.2q0-0.3-0.1-0.5 0-0.2-0.2-0.4-0.2-0.1-0.5-0.2-0.2-0.1-0.6-0.1-0.5 0-1 0.1-0.5 0.1-1.1 0.3v-1.3q0.5-0.2 1.1-0.3 0.5-0.1 1.1-0.1 0.8 0 1.3 0.2 0.5 0.2 0.9 0.5 0.4 0.3 0.6 0.7 0.1 0.4 0.1 0.9v2.5q0 0.7 0.1 1.1 0 0.5 0 0.9h-1.5v-0.7zm-0.1-2.1q-0.3-0.1-0.6-0.1-0.3-0.1-0.6-0.1-0.6 0-0.9 0.3-0.4 0.2-0.4 0.7 0 0.2 0.1 0.4 0.1 0.2 0.2 0.3 0.2 0.1 0.3 0.1 0.2 0.1 0.4 0.1 0.3 0 0.5-0.1 0.2 0 0.4-0.1 0.2-0.1 0.3-0.3 0.2-0.1 0.3-0.2c0 0 0-1 0-1z"/>
			<path id="Layer" class="s0" d="m21.5 101.3q-0.2 0.1-0.6 0.1-0.4 0.1-0.7 0.1-0.9 0-1.4-0.3-0.5-0.2-0.7-0.8-0.2-0.3-0.2-0.9v-3.5h-1.2v-1.3h1.2v-1.8h1.6v1.8h1.9v1.3h-1.9v3.3q0 0.3 0.1 0.5 0.2 0.3 0.9 0.3 0.2 0 0.5 0 0.3 0 0.5-0.1c0 0 0 1.3 0 1.3z"/>
			<path id="Layer" class="s0" d="m22.8 91.4h1.7v1.8h-1.7zm0 3.3h1.7v6.6h-1.7z"/>
			<path id="Layer" fill-rule="evenodd" class="s0" d="m32.6 98q0 0.8-0.3 1.4-0.2 0.7-0.6 1.1-0.5 0.5-1.1 0.7-0.6 0.3-1.3 0.3-0.8 0-1.4-0.3-0.7-0.2-1.1-0.7-0.4-0.4-0.6-1.1-0.3-0.6-0.3-1.4 0-0.8 0.3-1.4 0.2-0.6 0.6-1.1 0.5-0.5 1.1-0.7 0.6-0.3 1.3-0.3 0.8 0 1.4 0.3 0.7 0.2 1.1 0.7 0.4 0.5 0.6 1.1 0.3 0.6 0.3 1.4zm-1.7 0q0-0.5-0.1-0.9-0.1-0.4-0.4-0.7-0.2-0.3-0.5-0.4-0.3-0.1-0.7-0.1-0.3 0-0.6 0.1-0.3 0.1-0.5 0.4-0.3 0.3-0.4 0.7-0.1 0.4-0.1 0.9 0 0.5 0.1 1 0.2 0.4 0.4 0.6 0.2 0.3 0.5 0.4 0.3 0.2 0.7 0.2 0.3 0 0.6-0.2 0.3-0.1 0.5-0.4 0.3-0.2 0.4-0.6 0.1-0.5 0.1-1z"/>
			<path id="Layer" class="s0" d="m35.5 95.6q0.2-0.2 0.4-0.4 0.2-0.2 0.5-0.3 0.3-0.2 0.6-0.3 0.4 0 0.7 0 0.4 0 0.7 0 0.4 0.1 0.7 0.3 0.2 0.2 0.5 0.4 0.2 0.3 0.3 0.7 0.1 0.2 0.1 0.5 0 0.2 0 0.5v4.3h-1.6v-4q0-0.3 0-0.5 0-0.2-0.1-0.3-0.1-0.3-0.4-0.4-0.2-0.2-0.6-0.2-0.5 0-0.9 0.2-0.4 0.3-0.7 0.7v4.6h-1.7v-6.7h1.4l0.1 0.9z"/>
			<path id="Layer" fill-rule="evenodd" class="s0" d="m45.7 100.6zm-0.1 0q-0.1 0.1-0.3 0.3-0.2 0.1-0.4 0.3-0.3 0.1-0.6 0.2-0.3 0.1-0.6 0.1-0.5 0-0.9-0.2-0.4-0.1-0.7-0.4-0.3-0.3-0.5-0.7-0.1-0.4-0.1-0.9-0.1-0.5 0.1-0.9 0.2-0.4 0.6-0.7 0.3-0.3 0.8-0.5 0.5-0.1 1.1-0.1 0.4 0 0.8 0 0.3 0.1 0.6 0.1v-0.2q0-0.3-0.1-0.5 0-0.2-0.2-0.4-0.2-0.1-0.5-0.2-0.2-0.1-0.7-0.1-0.4 0-0.9 0.1-0.5 0.1-1.1 0.3v-1.3q0.5-0.2 1.1-0.3 0.5-0.1 1.1-0.1 0.7 0 1.3 0.2 0.5 0.2 0.9 0.5 0.4 0.3 0.6 0.7 0.1 0.4 0.1 0.9v2.5q0 0.7 0.1 1.1 0 0.5 0 0.9h-1.5v-0.7zm-0.1-2.1q-0.3-0.1-0.6-0.1-0.3-0.1-0.6-0.1-0.6 0-0.9 0.3-0.4 0.2-0.4 0.7 0 0.2 0.1 0.4 0.1 0.2 0.2 0.3 0.2 0.1 0.3 0.1 0.2 0.1 0.4 0.1 0.3 0 0.5-0.1 0.2 0 0.4-0.1 0.2-0.1 0.3-0.3 0.1-0.1 0.3-0.2c0 0 0-1 0-1z"/>
			<path id="Layer" class="s0" d="m49 91.4h1.7v9.9h-1.7z"/>
			<path id="Layer" class="s0" d="m60 93.4q-0.6 0-1.2 0.3-0.6 0.2-1 0.6-0.4 0.5-0.7 1.1-0.2 0.6-0.2 1.4 0 0.8 0.2 1.4 0.2 0.7 0.6 1.1 0.4 0.4 1 0.6 0.6 0.2 1.3 0.2 0.5 0 1-0.1 0.6-0.1 1.1-0.2v1.4q-0.5 0.1-1.1 0.2-0.5 0.1-1.1 0.1-1.2 0-2.1-0.3-0.8-0.3-1.4-1-0.6-0.6-0.9-1.4-0.3-0.9-0.3-1.9 0-1 0.3-1.9 0.3-0.9 0.9-1.6 0.6-0.6 1.5-1 0.9-0.4 2-0.4 0.6 0 1.1 0.1 0.6 0.1 1 0.2v1.5q-0.6-0.2-1-0.3-0.5-0.1-1-0.1z"/>
			<path id="Layer" class="s0" d="m62.2 94.7h1.8l0.9 2.4q0.6 1.4 0.8 2h0.1q0.1-0.5 0.7-1.9l1-2.5h1.8l-4.3 9.8h-1.6l1.5-3.5z"/>
			<path id="Layer" fill-rule="evenodd" class="s0" d="m76.6 97.9q0 0.9-0.3 1.6-0.2 0.7-0.7 1.1-0.4 0.5-0.9 0.7-0.5 0.2-1.1 0.2-0.3 0-0.6-0.1-0.3-0.1-0.6-0.2-0.2-0.2-0.4-0.3-0.1-0.2-0.2-0.3l-0.2 0.7h-1.3q0-0.3 0-0.7 0-0.5 0-0.8v-8.4h1.6c0 0.2 0 3.1 0 3.3q0 0.3 0 0.4 0.2-0.1 0.4-0.2 0.2-0.1 0.4-0.2 0.2-0.1 0.4-0.1 0.3-0.1 0.6-0.1 0.5 0 1.1 0.2 0.5 0.2 0.9 0.6 0.4 0.4 0.6 1.1 0.3 0.6 0.3 1.5zm-1.7 0.1q0-0.6-0.1-1.1-0.2-0.5-0.4-0.7-0.3-0.2-0.6-0.3-0.2-0.1-0.5-0.1-0.3 0-0.7 0.2-0.4 0.1-0.7 0.3v3.2q0.1 0.1 0.3 0.2 0.1 0.2 0.3 0.3 0.2 0.1 0.4 0.1 0.2 0.1 0.4 0.1 0.4 0 0.7-0.2 0.3-0.1 0.5-0.4 0.2-0.3 0.3-0.7 0.1-0.4 0.1-0.9z"/>
			<path id="Layer" fill-rule="evenodd" class="s0" d="m81.4 100.2q0.5 0 1-0.1 0.5-0.1 1.1-0.3v1.3q-0.4 0.1-1 0.3-0.6 0.1-1.3 0.1-0.7 0-1.4-0.2-0.6-0.2-1.1-0.6-0.5-0.4-0.7-1-0.3-0.6-0.3-1.6 0-0.9 0.2-1.5 0.3-0.7 0.7-1.2 0.5-0.4 1-0.6 0.6-0.3 1.2-0.3 0.6 0 1.2 0.2 0.5 0.2 0.9 0.6 0.4 0.4 0.6 1.1 0.2 0.6 0.2 1.5 0 0.4 0 0.6h-4.4q0.1 0.5 0.2 0.8 0.2 0.3 0.5 0.5 0.3 0.2 0.6 0.3 0.4 0.1 0.8 0.1zm-0.6-4.4q0 0 0 0 0 0 0 0zm-0.6 0.1q-0.2 0.1-0.4 0.3-0.1 0.2-0.2 0.5-0.1 0.2-0.2 0.5h2.6q0-0.3-0.1-0.5 0-0.3-0.2-0.5-0.1-0.2-0.4-0.3-0.2-0.1-0.5-0.1-0.3 0-0.6 0.1z"/>
			<path id="Layer" class="s0" d="m89.1 96h-0.1q-0.8 0-1.3 0.2-0.6 0.2-0.9 0.7v4.4h-1.6v-6.6h1.3l0.2 0.9q0.3-0.5 0.8-0.8 0.5-0.3 1.2-0.3 0.2 0 0.4 0.1v1.4z"/>
			<path id="Layer" class="s0" d="m93 99.4q0-0.2-0.1-0.3-0.1-0.2-0.3-0.3-0.2-0.1-0.5-0.1-0.2-0.1-0.5-0.2-0.4-0.1-0.7-0.2-0.3-0.1-0.6-0.3-0.2-0.2-0.4-0.5-0.1-0.4-0.1-0.8 0-0.6 0.2-1 0.2-0.4 0.5-0.6 0.4-0.3 0.8-0.4 0.5-0.2 1-0.2 0.6 0 1.1 0.1 0.5 0.1 1 0.3v1.3q-0.3-0.1-0.5-0.1-0.3-0.1-0.5-0.1-0.3-0.1-0.5-0.1-0.3 0-0.5 0-0.3 0-0.5 0-0.2 0.1-0.3 0.2-0.1 0.1-0.2 0.2 0 0.1 0 0.2 0 0.2 0.1 0.4 0.1 0.1 0.3 0.2 0.2 0.1 0.4 0.2 0.3 0 0.5 0.1 0.3 0.1 0.7 0.2 0.3 0.1 0.6 0.3 0.3 0.2 0.4 0.5 0.2 0.4 0.2 0.9 0 0.5-0.2 1-0.2 0.4-0.6 0.7-0.4 0.2-0.9 0.4-0.5 0.1-1.2 0.1-0.6 0-1.1-0.1-0.5-0.1-0.8-0.3v-1.3q0.5 0.2 1 0.3 0.4 0.1 0.8 0.1 0.3 0 0.6-0.1 0.2 0 0.4-0.1 0.2-0.1 0.3-0.2 0.1-0.2 0.1-0.4z"/>
			<path id="Layer" fill-rule="evenodd" class="s0" d="m99.4 100.2q0.5 0 1-0.1 0.5-0.1 1.1-0.3v1.3q-0.4 0.1-1 0.3-0.7 0.1-1.4 0.1-0.7 0-1.3-0.2-0.6-0.2-1.1-0.6-0.5-0.4-0.7-1-0.3-0.6-0.3-1.6 0-0.9 0.2-1.5 0.3-0.7 0.7-1.2 0.5-0.4 1-0.6 0.6-0.3 1.2-0.3 0.6 0 1.2 0.2 0.5 0.2 0.9 0.6 0.4 0.4 0.6 1.1 0.2 0.6 0.2 1.5 0 0.4 0 0.6h-4.4q0.1 0.5 0.2 0.8 0.2 0.3 0.5 0.5 0.3 0.2 0.6 0.3 0.4 0.1 0.8 0.1zm-0.6-4.4q0 0 0 0 0 0 0 0zm-0.6 0.1q-0.2 0.1-0.4 0.3-0.1 0.2-0.2 0.5-0.2 0.2-0.2 0.5h2.6q0-0.3-0.1-0.5 0-0.3-0.2-0.5-0.2-0.2-0.4-0.3-0.2-0.1-0.5-0.1-0.3 0-0.6 0.1z"/>
			<path id="Layer" class="s0" d="m108 101.2q-0.3 0.1-0.8 0.2-0.4 0.1-0.9 0.1-0.7 0-1.4-0.2-0.6-0.2-1.1-0.6-0.4-0.5-0.7-1.1-0.3-0.6-0.3-1.5 0-0.9 0.3-1.6 0.4-0.7 0.8-1.1 0.5-0.5 1.1-0.7 0.7-0.2 1.3-0.2 0.4 0 0.8 0.1 0.4 0.1 0.7 0.2v1.3q-0.2-0.1-0.6-0.2-0.3 0-0.7 0-0.4 0-0.8 0.1-0.3 0.1-0.6 0.4-0.3 0.2-0.4 0.6-0.2 0.5-0.2 1.1 0 0.4 0.1 0.8 0.2 0.4 0.4 0.6 0.2 0.3 0.6 0.5 0.4 0.2 0.9 0.2 0.4 0 0.8-0.1 0.3-0.1 0.6-0.3v1.4z"/>
			<path id="Layer" class="s0" d="m112.3 101.5q-1 0-1.7-0.3-0.6-0.4-1-0.9-0.1-0.4-0.2-0.7-0.1-0.4-0.1-0.9v-4h1.6v3.9q0 0.3 0.1 0.6 0 0.2 0.1 0.4 0.2 0.3 0.5 0.4 0.3 0.2 0.7 0.2 0.4 0 0.7-0.2 0.3-0.1 0.5-0.5 0.2-0.3 0.2-0.9v-3.9h1.6v4.1q0 0.8-0.3 1.3-0.2 0.3-0.4 0.6-0.3 0.2-0.6 0.4-0.3 0.2-0.8 0.3-0.4 0.1-0.9 0.1z"/>
			<path id="Layer" class="s0" d="m120.9 96h-0.1q-0.8 0-1.3 0.2-0.6 0.2-0.9 0.7v4.4h-1.6v-6.6h1.3l0.2 0.9q0.3-0.5 0.8-0.8 0.5-0.3 1.2-0.3 0.2 0 0.4 0.1v1.4z"/>
			<path id="Layer" class="s0" d="m121.9 91.4h1.7v1.8h-1.7zm0 3.3h1.6v6.6h-1.6z"/>
			<path id="Layer" class="s0" d="m129.4 101.3q-0.3 0.1-0.7 0.1-0.3 0.1-0.7 0.1-0.8 0-1.3-0.3-0.6-0.2-0.8-0.8-0.1-0.3-0.1-0.9v-3.5h-1.3v-1.3h1.3v-1.8h1.6v1.8h1.9v1.3h-1.9v3.3q0 0.3 0.1 0.5 0.2 0.3 0.8 0.3 0.3 0 0.6 0 0.3 0 0.5-0.1c0 0 0 1.3 0 1.3z"/>
			<path id="Layer" class="s0" d="m129.8 94.7h1.8l0.9 2.4q0.6 1.4 0.8 2h0.1q0.1-0.5 0.7-1.9l1-2.5h1.8l-4.3 9.8h-1.6l1.5-3.5z"/>
			<path id="Layer" fill-rule="evenodd" class="s0" d="m146.2 99h-3.5l-0.9 2.3h-1.8l3.7-9.1h1.5l3.6 9.1h-1.7zm-1.8-4.6q-0.4 1.5-0.8 2.4l-0.3 0.8h2.3l-0.3-0.8q-0.4-1-0.8-2.4z"/>
			<path id="Layer" class="s0" d="m152.8 101.5q-1 0-1.6-0.3-0.7-0.4-1-0.9-0.2-0.4-0.3-0.7-0.1-0.4-0.1-0.9v-4h1.7v3.9q0 0.3 0 0.6 0.1 0.2 0.2 0.4 0.1 0.3 0.4 0.4 0.3 0.2 0.7 0.2 0.5 0 0.8-0.2 0.3-0.1 0.5-0.5 0.1-0.3 0.1-0.9v-3.9h1.6v4.1q0 0.8-0.2 1.3-0.2 0.3-0.5 0.6-0.2 0.2-0.5 0.4-0.4 0.2-0.8 0.3-0.4 0.1-0.9 0.1z"/>
			<path id="Layer" class="s0" d="m161.6 101.3q-0.3 0.1-0.7 0.1-0.3 0.1-0.7 0.1-0.8 0-1.3-0.3-0.6-0.2-0.8-0.8-0.2-0.3-0.2-0.9v-3.5h-1.2v-1.3h1.2v-1.8h1.7v1.8h1.9v1.3h-1.9v3.3q0 0.3 0.1 0.5 0.2 0.3 0.8 0.3 0.3 0 0.6 0 0.2 0 0.5-0.1c0 0 0 1.3 0 1.3z"/>
			<path id="Layer" class="s0" d="m164.5 94.1q0 0.5 0 0.9 0 0.3-0.1 0.6h0.1q0.1-0.2 0.3-0.4 0.2-0.2 0.5-0.3 0.2-0.2 0.6-0.3 0.3-0.1 0.7-0.1 0.3 0 0.6 0.1 0.3 0.1 0.6 0.2 0.2 0.1 0.5 0.4 0.2 0.2 0.3 0.5 0.2 0.2 0.2 0.6 0.1 0.3 0.1 0.8v4.2h-1.6v-4q0-0.3-0.1-0.5 0-0.2-0.1-0.4-0.1-0.3-0.4-0.4-0.2-0.1-0.6-0.1-0.4 0-0.9 0.2-0.4 0.3-0.7 0.7v4.5h-1.6v-9.9h1.6v2.7z"/>
			<path id="Layer" fill-rule="evenodd" class="s0" d="m177 98q0 0.8-0.3 1.4-0.2 0.7-0.6 1.1-0.5 0.5-1.1 0.7-0.6 0.3-1.3 0.3-0.8 0-1.4-0.3-0.7-0.2-1.1-0.7-0.4-0.4-0.7-1.1-0.2-0.6-0.2-1.4 0-0.8 0.2-1.4 0.3-0.6 0.7-1.1 0.5-0.5 1.1-0.7 0.6-0.3 1.3-0.3 0.8 0 1.4 0.3 0.7 0.2 1.1 0.7 0.4 0.5 0.6 1.1 0.3 0.6 0.3 1.4zm-1.7 0q0-0.5-0.1-0.9-0.1-0.4-0.4-0.7-0.2-0.3-0.5-0.4-0.3-0.1-0.6-0.1-0.4 0-0.7 0.1-0.3 0.1-0.5 0.4-0.3 0.3-0.4 0.7-0.1 0.4-0.1 0.9 0 0.5 0.1 1 0.2 0.4 0.4 0.6 0.2 0.3 0.5 0.4 0.3 0.2 0.7 0.2 0.3 0 0.6-0.2 0.3-0.1 0.5-0.4 0.3-0.2 0.4-0.6 0.1-0.5 0.1-1z"/>
			<path id="Layer" class="s0" d="m182.3 96h-0.1q-0.7 0-1.3 0.2-0.6 0.2-0.9 0.7v4.4h-1.6v-6.6h1.3l0.2 0.9q0.3-0.5 0.8-0.8 0.5-0.3 1.2-0.3 0.3 0 0.4 0.1v1.4z"/>
			<path id="Layer" class="s0" d="m183.3 91.4h1.7v1.8h-1.7zm0 3.3h1.7v6.6h-1.7z"/>
			<path id="Layer" class="s0" d="m190.8 101.3q-0.3 0.1-0.6 0.1-0.4 0.1-0.7 0.1-0.9 0-1.4-0.3-0.5-0.2-0.8-0.8-0.1-0.3-0.1-0.9v-3.5h-1.3v-1.3h1.3v-1.8h1.6v1.8h1.9v1.3h-1.9v3.3q0 0.3 0.1 0.5 0.2 0.3 0.8 0.3 0.3 0 0.6 0 0.3 0 0.5-0.1c0 0 0 1.3 0 1.3z"/>
			<path id="Layer" class="s0" d="m191.3 94.7h1.7l1 2.4q0.6 1.4 0.8 2 0.2-0.5 0.7-1.9l1.1-2.5h1.7l-4.3 9.8h-1.5l1.5-3.5z"/>
		</g>
	</g>
	<path id="Layer" fill-rule="evenodd" class="s1" d="m242.6 63c0.4 0.5 0.6 1.1 0.6 1.7v41.3c0 0.8-0.5 1.4-1.3 1.4h-2.6c-0.7 0-1.3-0.6-1.3-1.4v-40.3l-11-12.8c-0.4-0.5-0.7-1.1-0.7-1.7v-9.4c0-0.8 0.6-1.4 1.4-1.4h2.6c0.7 0 1.3 0.6 1.3 1.4v8.4zm-7.2 8.5c0 2.5-1.4 4.7-3.7 5.8h-0.1v19.2c0 0.8-0.6 1.3-1.3 1.3h-2.7c-0.7 0-1.3-0.5-1.3-1.3v-19.2h-0.1c-2.3-1.1-3.7-3.3-3.7-5.8 0-3.5 2.9-6.4 6.4-6.4 3.6 0 6.5 2.9 6.5 6.4zm-3.9 0c0-1.4-1.1-2.6-2.6-2.6-1.4 0-2.5 1.2-2.5 2.6 0 1.4 1.1 2.6 2.5 2.6 1.5 0 2.6-1.2 2.6-2.6zm10.4-68c0.7 0 1.3 0.6 1.3 1.3v21.8c0 1-0.6 2-1.5 2.4l-11.6 5.6q-0.6 0.3-1.2 0.3c-0.7 0-1.4-0.3-1.9-0.8-0.4-0.5-0.7-1.2-0.7-1.9v-23.7c0-0.7 0.6-1.3 1.3-1.3h2.6c0.8 0 1.4 0.6 1.4 1.3v19.6l6.4-3.1v-20.2c0-0.7 0.6-1.3 1.3-1.3zm31-0.6c0-0.7 0.6-1.3 1.4-1.3h2.6c0.7 0 1.3 0.6 1.3 1.3v31.5c0 0.7-0.6 1.3-1.3 1.3h-2.6c-0.8 0-1.4-0.6-1.4-1.3zm-22 24.7c-0.8-0.5-1.3-1.4-1.3-2.3v-22.4c0-0.8 0.6-1.4 1.3-1.4h2.7c0.7 0 1.3 0.6 1.3 1.4v21l6.4 3.9v-25.9c0-0.7 0.6-1.3 1.3-1.3h2.6c0.7 0 1.3 0.6 1.3 1.3v30.4c0 1-0.5 1.9-1.2 2.4-0.8 0.5-1.9 0.5-2.8 0l-11.6-7.1zm-36.2-12.9c0-0.8 0.6-1.4 1.3-1.4h2.6c0.7 0 1.3 0.6 1.3 1.4v60.4c0 0.8-0.6 1.4-1.3 1.4h-2.6c-0.7 0-1.3-0.6-1.3-1.4zm93.2 0c0-0.7 0.6-1.3 1.3-1.3h2.6c0.8 0 1.4 0.6 1.4 1.3v60.5c0 0.7-0.6 1.3-1.4 1.3h-2.6c-0.7 0-1.3-0.6-1.3-1.3zm-11.6-6.3c0-0.7 0.5-1.3 1.3-1.3h2.6c0.7 0 1.3 0.6 1.3 1.3v35.2c0 0.7-0.6 1.3-1.3 1.3h-2.6c-0.8 0-1.3-0.6-1.3-1.3zm2.6 66.9c0.6 0 1.3 0.2 1.8 0.7 0.5 0.5 0.8 1.2 0.8 2v18.4c0 0.7-0.6 1.3-1.3 1.3h-2.6c-0.7 0-1.3-0.6-1.3-1.3v-13.9l-6.4 3.8v19.6c0 0.7-0.6 1.3-1.4 1.3h-2.6c-0.7 0-1.3-0.6-1.3-1.3v-21.2c0-0.9 0.5-1.7 1.3-2.2l11.7-6.8q0.6-0.4 1.3-0.4zm-23.3 12.7c1.2 0 2.2 0.8 2.5 1.9q0.1 0.3 0.1 0.7v22c0 0.7-0.6 1.3-1.3 1.3h-2.6c-0.7 0-1.3-0.6-1.3-1.3v-19.3l-6.4 0.4v23.4c0 0.8-0.6 1.4-1.4 1.4h-2.6c-0.7 0-1.3-0.6-1.3-1.4v-25.9c0-1.4 1.1-2.6 2.5-2.7l11.6-0.5c0.1 0 0.2 0 0.2 0zm-16.9 19.5c0 3.5-2.9 6.4-6.5 6.4-3.5 0-6.4-2.9-6.4-6.4 0-2.5 1.4-4.7 3.7-5.8h0.1v-16.1c0-0.7 0.6-1.3 1.4-1.3h2.6c0.7 0 1.3 0.6 1.3 1.3v16.1h0.1c2.3 1.1 3.7 3.3 3.7 5.8zm-3.9 0c0-1.4-1.1-2.6-2.5-2.6-1.4 0-2.6 1.2-2.6 2.6 0 1.4 1.2 2.6 2.6 2.6 1.4 0 2.5-1.2 2.5-2.6zm45.8-52.4c0.6 0.5 0.9 1.2 0.9 2v6.5c0 0.8-0.6 1.3-1.3 1.3h-2.6c-0.8 0-1.4-0.5-1.4-1.3v-5.3l-10.7-8.9c-0.6-0.5-0.9-1.3-0.9-2.1v-31.7h-0.2c-2.2-1.1-3.6-3.4-3.6-5.8 0-3.5 2.9-6.4 6.4-6.4 3.6 0 6.4 2.9 6.4 6.4 0 2.4-1.4 4.7-3.6 5.8h-0.2v30.5l10.7 9zm-10.7-45.3c0-1.4-1.2-2.6-2.6-2.6-1.4 0-2.6 1.2-2.6 2.6 0 1.4 1.2 2.6 2.6 2.6 1.4 0 2.6-1.2 2.6-2.6zm-9.1 57.2q0.2 0 0.2 0.2c0 0.1-0.1 0.2-0.2 0.2-6.2 0.5-9.1 2.8-12.2 5.3q-1 0.8-2.1 1.6c2.1 1.4 4.4 2.7 6.7 3.1q0.2 0 0.2 0.2c0 0.1 0 0.3-0.1 0.3-1 0.5-2 0.8-2.9 0.8-2.2 0-4.2-1.2-6.4-2.7-3.1 2.1-5.9 3.7-9.2 1.9-0.1 0-0.2-0.2-0.2-0.3 0.1-0.1 0.2-0.2 0.3-0.2 2.3-0.4 4.6-1.7 6.7-3.1-0.8-0.6-1.5-1.1-2.2-1.6-3-2.5-5.9-4.8-12.1-5.3-0.1 0-0.2-0.1-0.2-0.2 0-0.1 0-0.2 0.1-0.2 6.3-1.8 9.4 0.4 13.4 3.3q0.8 0.5 1.5 1c0.9-6.6 0.7-14.5 0.6-17.1-1.7 1-3.6 2.8-4.9 7.7l-0.2 0.7q0 0.1-0.2 0.1c-0.1 0-0.2 0-0.3-0.1l-0.1-0.7c-0.8-4.9 1.7-8.3 2.7-9.5-0.5 0.1-1.2 0.3-2 0.7-1.4 0.6-3.4 2-5.4 4.9l-0.4 0.6c-0.1 0.1-0.2 0.1-0.3 0.1-0.1 0-0.2-0.2-0.2-0.3l0.2-0.7c1.3-6.3 5.8-8.4 7.5-9-0.9-0.3-3-0.6-7.1 0.7l-0.5 0.2q-0.2 0-0.3-0.1 0-0.2 0.1-0.3l0.3-0.4c3.1-3.6 7.6-3.3 9.2-3.1-0.4-0.5-1.2-1.4-2.5-2.3l-0.6-0.4c-0.1 0-0.1-0.2-0.1-0.3 0.1-0.1 0.2-0.1 0.3-0.1l0.6 0.1c2.4 0.3 3.9 1.3 4.7 1.9 0-0.6 0.2-1.5 0.5-2.2l0.1-0.3q0.1-0.2 0.2-0.2 0.2 0 0.2 0.2l0.2 0.3c0.3 0.7 0.4 1.6 0.5 2.2 0.4-0.3 0.9-0.7 1.7-1 0.8-0.4 1.7-0.7 2.9-0.9l0.7-0.1c0.1 0 0.2 0 0.2 0.1q0.1 0.2-0.1 0.3l-0.5 0.4c-1.3 0.9-2.1 1.8-2.5 2.3 1.5-0.2 6-0.5 9.1 3.1l0.4 0.4q0.1 0.1 0 0.3c0 0.1-0.2 0.1-0.3 0.1l-0.5-0.2c-4.1-1.3-6.2-1-7.1-0.7 1.7 0.6 6.3 2.7 7.6 9l0.1 0.7c0 0.2 0 0.3-0.1 0.3q-0.2 0.1-0.3-0.1l-0.4-0.6c-2-2.9-4.1-4.3-5.4-4.9-0.9-0.4-1.6-0.6-2.1-0.6 1.1 1.1 3.6 4.6 2.7 9.4l-0.1 0.7c0 0.1-0.1 0.2-0.2 0.2-0.1 0-0.2-0.1-0.3-0.2l-0.1-0.7c-1.4-4.9-3.3-6.7-4.9-7.7-0.2 2.6-0.3 10.5 0.5 17.1q0.8-0.5 1.5-1c4-2.9 7.2-5.1 13.4-3.3z"/>
</svg>