<svg version="1.2" xmlns="http://www.w3.org/2000/svg" viewBox="0 0 76 90" width="76" height="90">
    <title>nca-white-svg</title>

    <path id="NCA-logo-white_svg__SVGID_1_"
          fill="currentColor"
          d="m34.6 15.4c1.4 0 2.5 1.1 2.5 2.5 0 1.4-1.1 2.5-2.5 2.5-1.4 0-2.5-1.1-2.5-2.5 0-1.3 1.1-2.4 2.5-2.5zm33.2 19.4c1.4 0 2.5 1.1 2.5 2.5 0 1.4-1.1 2.5-2.5 2.5-1.4 0-2.5-1.1-2.5-2.5 0-1.4 1.1-2.5 2.5-2.5zm-6.8-20.4c1.4 0 2.5 1.1 2.5 2.5 0 1.4-1.1 2.5-2.5 2.5-1.4 0-2.5-1.1-2.5-2.5 0-1.3 1.1-2.4 2.5-2.5zm-39.6 54.9c1.4 0 2.5 1.1 2.5 2.5 0 1.4-1.1 2.5-2.5 2.5-1.4 0-2.5-1.1-2.5-2.5 0-1.4 1.1-2.5 2.5-2.5zm-13.4-52.6c1.4 0 2.5 1.1 2.5 2.5 0 1.4-1.1 2.5-2.5 2.5-1.4 0-2.5-1.1-2.5-2.5 0-1.4 1.1-2.5 2.5-2.5zm65.4-7.5h2v50.5h-2zm-6.8 53.7h2v7.3h-2zm0.1-56.7h2v31.1h-2zm-6.7-2.6h2v13.4h-2zm-6.6 22.8h2v5.9h-2zm-6.1 46.5h2v13.1h-2zm-0.5-72h2v29.8h-2zm-6.6-0.6h2v7.3h-2zm-6.6 80.9h2v8.8h-2zm0-64.3h2v9.4h-2zm8.6 58.1v13.9h-2v-11.9h-11.2v9h-2v-11zm-21.8-3.8h2v11.2h-2zm8.6-70.3v20l6.1 4.8 12.5 3 5.9 7.8h3.3v4.3l3.4 4.3h5.8l3.7 4.2-2.7 11.1-5 1.1v15.5h-2v-17.1l5.4-1.2 2.1-8.8-2.4-2.8h-5.9l-4.4-5.6v-2.9h-2.3l-6.1-8.1-12.3-3-7.1-5.6v-21zm-6.6 0.8v24.8l-7.3 5.2 9.7 15.5 0.1 6.9 4.9 6.3 1.8-1.6 11.1 3 7.8-5.9 9.9-2.3 0.2-0.7-0.4-0.3h-4.4l-12.7-16.6-10.2-2-4.9-3.7-5.4 3.8-1.1-1.7 6.6-4.7 5.6 4.4 10.5 2.1 12.6 16.4h4l2.1 1.5-0.8 3.2-10.7 2.5-8.3 6.2-11-3-2.5 2.4-6.7-8.6-0.1-7-10.4-16.7 8-5.7v-23.7zm-6.6 1.9v19.5l-5.4 3.8h-2.8v4.2l11.2 17.9 0.2 7.2 10.1 13.1 4.1-3.8 10.9 2.9 8.6-6.1 3.2 2.4v17.4h-2v-16.4l-1.3-0.9-8.1 5.8-10.7-2.9-5 4.6-11.9-15.4-0.1-7.3-11.2-17.9v-6.8h4.2l4-2.8v-18.5zm-6.8 37.8v9.9l6.8 7.6v18.4h-2v-17.6l-6.9-7.6v-10.7zm-2.1-35.2h2v13h-2zm-4.5 3.8v43.4l6.6 7.3v8.5h-2.1v-7.7l-6.5-7.3v-44.2zm51-7.8h2v16.8l6.6 6.5v20.1h-2v-19.3l-6.6-6.5zm-17.8-2.2v9.5l6.6 6.5v12.4h-2v-11.5l-6.6-6.5v-10.4zm5.3 54.8c-1.3 0.8-2.5 0.2-3.9-0.8-1.4 0.9-2.6 1.5-3.9 0.8 1-0.2 2-0.7 3-1.4-1.8-1.2-4-2.7-7.3-3 2.9-0.9 5.3 0.5 7.4 1.9 0.4-3 0.3-6.7 0.2-7.6-0.8 0.4-1.7 1.2-2.3 3.4l-0.1 0.3-0.1-0.3c-0.4-2.4 1.2-4 1.3-4.1-0.1 0-0.5 0-1.1 0.3-0.6 0.3-1.4 0.8-2.3 2.1l-0.2 0.3 0.1-0.3c0.7-3.1 3.2-3.8 3.4-3.8 0 0-0.9-0.6-3.3 0.2l-0.2 0.1 0.2-0.2c1.5-1.7 3.8-1.3 4-1.2-0.1-0.2-0.5-0.7-1.2-1.2l-0.2-0.2h0.3c1.3 0.2 1.9 0.8 2.1 1 0-0.2 0-0.7 0.2-1.1h-0.1l0.1 0.1c0.1 0.3 0.2 0.8 0.2 1.1 0.2-0.2 0.9-0.8 2.1-1h0.3l-0.2 0.2c-0.7 0.5-1.1 1-1.2 1.2 0.2-0.1 2.5-0.6 4 1.2l0.2 0.2-0.2-0.1c-2.4-0.8-3.3-0.2-3.3-0.2 0.2 0 2.8 0.7 3.4 3.8l0.1 0.3-0.2-0.3c-0.8-1.2-1.7-1.8-2.3-2.1-0.6-0.3-1-0.3-1.1-0.3 0.1 0.1 1.7 1.7 1.3 4.1l-0.1 0.3-0.1-0.3c-0.6-2.2-1.5-3-2.3-3.4-0.1 0.9-0.2 4.6 0.2 7.6 2.1-1.4 4.4-2.7 7.4-1.9-3.3 0.3-5.5 1.8-7.3 3 1.1 0.6 2 1.2 3 1.3z"/>
</svg>