<svg width="987" height="361" viewBox="0 0 987 361" fill="none" xmlns="http://www.w3.org/2000/svg">
  <g id="Group">
    <path id="Vector" d="M606.99 125.21H539.59V337.94H606.99V125.21Z" fill="currentColor" stroke="currentColor"
      stroke-width="1.33469" />
    <path id="Vector_2" d="M705.87 22.9H440.72V82.86H705.87V22.9Z" fill="currentColor" stroke="currentColor"
      stroke-width="1.33469" />
    <path id="Vector_3"
      d="M159.58 280.17C150.62 287.24 138.76 290.78 123.99 290.78C107.02 290.78 91.14 287.56 76.38 281.12C61.6 274.68 47.78 265.02 34.9 252.13L0 295.49C16.34 312.15 35.12 324.8 56.33 333.44C77.55 342.08 100.09 346.41 123.98 346.41C156.03 346.41 182.83 337.15 204.36 318.6C225.88 300.06 236.65 276.96 236.65 249.3C236.65 226.67 229.73 208.05 215.91 193.44C202.07 178.83 178.67 166.03 145.67 155.02C116.44 145.28 97.42 137.03 88.63 130.27C79.83 123.51 75.43 114.95 75.43 104.58C75.43 93.9 79.51 85.49 87.69 79.36C95.86 73.23 106.7 70.17 120.22 70.17C132.16 70.17 143.71 72.69 154.87 77.71C166.02 82.74 177.57 90.75 189.52 101.75L226.29 58.38C211.51 43.92 195.02 32.92 176.79 25.38C158.56 17.84 139.55 14.07 119.75 14.07C88.64 14.07 62.86 22.87 42.44 40.47C22.01 58.07 11.8 80.23 11.8 106.94C11.8 130.83 18.87 150.16 33.02 164.93C47.16 179.71 72.46 193.21 108.92 205.47C135.32 214.59 152.6 222.28 160.78 228.57C168.95 234.86 173.03 242.71 173.03 252.14C173.01 263.75 168.53 273.1 159.58 280.17Z"
      fill="currentColor" stroke="currentColor" stroke-width="1.33469" />
    <path id="Vector_4" d="M986.41 150.37H787.18V210.46H986.41V150.37Z" fill="currentColor" stroke="currentColor"
      stroke-width="1.33469" />
    <path id="Vector_5" d="M967.985 -0.027826L771.783 34.5784L782.221 93.7551L978.423 59.1488L967.985 -0.027826Z"
      fill="currentColor" stroke="currentColor" stroke-width="1.33469" />
    <path id="Vector_6" d="M782.175 267.054L771.744 326.231L967.945 360.817L978.377 301.641L782.175 267.054Z"
      fill="currentColor" stroke="currentColor" stroke-width="1.33469" />
    <path id="Vector_7" d="M370.12 22.9H302.72V337.94H370.12V22.9Z" fill="currentColor" stroke="currentColor"
      stroke-width="1.33469" />
  </g>
</svg>