<svg width="18" height="18" viewBox="0 0 18 18" fill="none" xmlns="http://www.w3.org/2000/svg">
    <path d="M4.875 10.958V13.0205M7.625 8.89551V13.0205M10.375 6.83301V13.0205M13.125 4.77051V13.0205M3.5 16.458H14.5C15.047 16.458 15.5716 16.2407 15.9584 15.8539C16.3452 15.4671 16.5625 14.9425 16.5625 14.3955V3.39551C16.5625 2.8485 16.3452 2.32389 15.9584 1.9371C15.5716 1.55031 15.047 1.33301 14.5 1.33301H3.5C2.95299 1.33301 2.42839 1.55031 2.04159 1.9371C1.6548 2.32389 1.4375 2.8485 1.4375 3.39551V14.3955C1.4375 14.9425 1.6548 15.4671 2.04159 15.8539C2.42839 16.2407 2.95299 16.458 3.5 16.458Z"
          stroke="currentColor" stroke-width="1.5" stroke-linecap="round" stroke-linejoin="round"/>
</svg>
